<mxfile host="app.diagrams.net" agent="Mozilla/5.0 (Macintosh; Intel Mac OS X 10_15_7) AppleWebKit/605.1.15 (KHTML, like Gecko) Version/18.2 Safari/605.1.15" version="27.0.5">
  <diagram name="Page-1" id="4rgMZcu47bZPyOpnWGqP">
    <mxGraphModel dx="1676" dy="1753" grid="1" gridSize="10" guides="1" tooltips="1" connect="1" arrows="1" fold="1" page="1" pageScale="1" pageWidth="827" pageHeight="1169" math="0" shadow="0">
      <root>
        <mxCell id="0" />
        <mxCell id="1" parent="0" />
        <mxCell id="istF8mxj8MWislgcNOOp-47" value="" style="html=1;dropTarget=0;whiteSpace=wrap;" vertex="1" parent="1">
          <mxGeometry x="-530" y="-100" width="1420" height="630" as="geometry" />
        </mxCell>
        <mxCell id="istF8mxj8MWislgcNOOp-48" value="" style="shape=module;jettyWidth=8;jettyHeight=4;" vertex="1" parent="istF8mxj8MWislgcNOOp-47">
          <mxGeometry x="1" width="20" height="20" relative="1" as="geometry">
            <mxPoint x="-27" y="7" as="offset" />
          </mxGeometry>
        </mxCell>
        <mxCell id="istF8mxj8MWislgcNOOp-2" value="&lt;p style=&quot;margin:0px;margin-top:6px;text-align:center;&quot;&gt;&lt;b&gt;&amp;lt;&amp;lt;subsystem&amp;gt;&amp;gt;&amp;nbsp;&lt;/b&gt;&lt;/p&gt;&lt;p style=&quot;margin:0px;margin-top:6px;text-align:center;&quot;&gt;&lt;b&gt;User Management&lt;/b&gt;&lt;/p&gt;" style="align=left;overflow=fill;html=1;dropTarget=0;whiteSpace=wrap;" vertex="1" parent="1">
          <mxGeometry x="120" y="140" width="670" height="330" as="geometry" />
        </mxCell>
        <mxCell id="istF8mxj8MWislgcNOOp-3" value="" style="shape=component;jettyWidth=8;jettyHeight=4;" vertex="1" parent="istF8mxj8MWislgcNOOp-2">
          <mxGeometry x="1" width="20" height="20" relative="1" as="geometry">
            <mxPoint x="-24" y="4" as="offset" />
          </mxGeometry>
        </mxCell>
        <mxCell id="istF8mxj8MWislgcNOOp-6" value="«Component»&lt;br&gt;&lt;b&gt;User&lt;/b&gt;" style="html=1;dropTarget=0;whiteSpace=wrap;" vertex="1" parent="1">
          <mxGeometry x="510" y="250" width="180" height="90" as="geometry" />
        </mxCell>
        <mxCell id="istF8mxj8MWislgcNOOp-7" value="" style="shape=module;jettyWidth=8;jettyHeight=4;" vertex="1" parent="istF8mxj8MWislgcNOOp-6">
          <mxGeometry x="1" width="20" height="20" relative="1" as="geometry">
            <mxPoint x="-27" y="7" as="offset" />
          </mxGeometry>
        </mxCell>
        <mxCell id="istF8mxj8MWislgcNOOp-8" value="«Component»&lt;br&gt;&lt;b&gt;Doctor&lt;/b&gt;" style="html=1;dropTarget=0;whiteSpace=wrap;" vertex="1" parent="1">
          <mxGeometry x="220" y="340" width="180" height="90" as="geometry" />
        </mxCell>
        <mxCell id="istF8mxj8MWislgcNOOp-9" value="" style="shape=module;jettyWidth=8;jettyHeight=4;" vertex="1" parent="istF8mxj8MWislgcNOOp-8">
          <mxGeometry x="1" width="20" height="20" relative="1" as="geometry">
            <mxPoint x="-27" y="7" as="offset" />
          </mxGeometry>
        </mxCell>
        <mxCell id="istF8mxj8MWislgcNOOp-12" value="«Component»&lt;br&gt;&lt;b&gt;Patient&lt;/b&gt;" style="html=1;dropTarget=0;whiteSpace=wrap;" vertex="1" parent="1">
          <mxGeometry x="220" y="180" width="180" height="90" as="geometry" />
        </mxCell>
        <mxCell id="istF8mxj8MWislgcNOOp-13" value="" style="shape=module;jettyWidth=8;jettyHeight=4;" vertex="1" parent="istF8mxj8MWislgcNOOp-12">
          <mxGeometry x="1" width="20" height="20" relative="1" as="geometry">
            <mxPoint x="-27" y="7" as="offset" />
          </mxGeometry>
        </mxCell>
        <mxCell id="istF8mxj8MWislgcNOOp-14" value="" style="rounded=0;orthogonalLoop=1;jettySize=auto;html=1;endArrow=halfCircle;endFill=0;endSize=6;strokeWidth=1;sketch=0;fontSize=12;curved=1;exitX=1;exitY=0.5;exitDx=0;exitDy=0;entryX=0;entryY=0.5;entryDx=0;entryDy=0;" edge="1" target="istF8mxj8MWislgcNOOp-16" parent="1" source="istF8mxj8MWislgcNOOp-49">
          <mxGeometry relative="1" as="geometry">
            <mxPoint x="535" y="285" as="sourcePoint" />
            <mxPoint x="850" y="295" as="targetPoint" />
          </mxGeometry>
        </mxCell>
        <mxCell id="istF8mxj8MWislgcNOOp-15" value="" style="ellipse;whiteSpace=wrap;html=1;align=center;aspect=fixed;fillColor=none;strokeColor=none;resizable=0;perimeter=centerPerimeter;rotatable=0;allowArrows=0;points=[];outlineConnect=1;" vertex="1" parent="1">
          <mxGeometry x="510" y="280" width="10" height="10" as="geometry" />
        </mxCell>
        <mxCell id="istF8mxj8MWislgcNOOp-16" value="User Profile" style="text;align=center;fontStyle=1;verticalAlign=middle;spacingLeft=3;spacingRight=3;strokeColor=none;rotatable=0;points=[[0,0.5],[1,0.5]];portConstraint=eastwest;html=1;" vertex="1" parent="1">
          <mxGeometry x="940" y="282" width="80" height="26" as="geometry" />
        </mxCell>
        <mxCell id="istF8mxj8MWislgcNOOp-18" value="" style="rounded=0;whiteSpace=wrap;html=1;" vertex="1" parent="1">
          <mxGeometry x="780" y="286.5" width="20" height="17" as="geometry" />
        </mxCell>
        <mxCell id="istF8mxj8MWislgcNOOp-28" value="" style="rounded=0;orthogonalLoop=1;jettySize=auto;html=1;endArrow=halfCircle;endFill=0;endSize=6;strokeWidth=1;sketch=0;exitX=1;exitY=0.5;exitDx=0;exitDy=0;" edge="1" target="istF8mxj8MWislgcNOOp-30" parent="1" source="istF8mxj8MWislgcNOOp-6">
          <mxGeometry relative="1" as="geometry">
            <mxPoint x="740" y="285" as="sourcePoint" />
          </mxGeometry>
        </mxCell>
        <mxCell id="istF8mxj8MWislgcNOOp-29" value="" style="rounded=0;orthogonalLoop=1;jettySize=auto;html=1;endArrow=oval;endFill=0;sketch=0;sourcePerimeterSpacing=0;targetPerimeterSpacing=0;endSize=10;exitX=0;exitY=0.5;exitDx=0;exitDy=0;" edge="1" target="istF8mxj8MWislgcNOOp-30" parent="1" source="istF8mxj8MWislgcNOOp-18">
          <mxGeometry relative="1" as="geometry">
            <mxPoint x="700" y="285" as="sourcePoint" />
          </mxGeometry>
        </mxCell>
        <mxCell id="istF8mxj8MWislgcNOOp-30" value="" style="ellipse;whiteSpace=wrap;html=1;align=center;aspect=fixed;fillColor=none;strokeColor=none;resizable=0;perimeter=centerPerimeter;rotatable=0;allowArrows=0;points=[];outlineConnect=1;" vertex="1" parent="1">
          <mxGeometry x="730" y="290" width="10" height="10" as="geometry" />
        </mxCell>
        <mxCell id="istF8mxj8MWislgcNOOp-37" value="" style="endArrow=open;endFill=1;endSize=12;html=1;rounded=0;entryX=1;entryY=0.5;entryDx=0;entryDy=0;exitX=0;exitY=0.5;exitDx=0;exitDy=0;" edge="1" parent="1" source="istF8mxj8MWislgcNOOp-6" target="istF8mxj8MWislgcNOOp-12">
          <mxGeometry width="160" relative="1" as="geometry">
            <mxPoint x="420" y="280" as="sourcePoint" />
            <mxPoint x="580" y="280" as="targetPoint" />
            <Array as="points">
              <mxPoint x="450" y="295" />
              <mxPoint x="450" y="225" />
            </Array>
          </mxGeometry>
        </mxCell>
        <mxCell id="istF8mxj8MWislgcNOOp-38" value="" style="endArrow=open;endFill=1;endSize=12;html=1;rounded=0;entryX=1;entryY=0.5;entryDx=0;entryDy=0;exitX=0;exitY=0.5;exitDx=0;exitDy=0;" edge="1" parent="1" source="istF8mxj8MWislgcNOOp-6" target="istF8mxj8MWislgcNOOp-8">
          <mxGeometry width="160" relative="1" as="geometry">
            <mxPoint x="420" y="280" as="sourcePoint" />
            <mxPoint x="580" y="280" as="targetPoint" />
            <Array as="points">
              <mxPoint x="450" y="295" />
              <mxPoint x="450" y="385" />
            </Array>
          </mxGeometry>
        </mxCell>
        <mxCell id="istF8mxj8MWislgcNOOp-45" value="" style="rounded=0;orthogonalLoop=1;jettySize=auto;html=1;endArrow=halfCircle;endFill=0;endSize=6;strokeWidth=1;sketch=0;exitX=0;exitY=0.5;exitDx=0;exitDy=0;" edge="1" parent="1" source="istF8mxj8MWislgcNOOp-2" target="istF8mxj8MWislgcNOOp-44">
          <mxGeometry relative="1" as="geometry">
            <mxPoint x="120" y="305" as="sourcePoint" />
            <mxPoint x="155" y="305" as="targetPoint" />
          </mxGeometry>
        </mxCell>
        <mxCell id="istF8mxj8MWislgcNOOp-44" value="" style="rounded=0;whiteSpace=wrap;html=1;" vertex="1" parent="1">
          <mxGeometry x="110" y="296.5" width="20" height="17" as="geometry" />
        </mxCell>
        <mxCell id="istF8mxj8MWislgcNOOp-46" value="" style="endArrow=none;html=1;rounded=0;exitX=0;exitY=0.5;exitDx=0;exitDy=0;entryX=1;entryY=0.5;entryDx=0;entryDy=0;" edge="1" parent="1" source="istF8mxj8MWislgcNOOp-8" target="istF8mxj8MWislgcNOOp-44">
          <mxGeometry width="50" height="50" relative="1" as="geometry">
            <mxPoint x="420" y="330" as="sourcePoint" />
            <mxPoint x="180" y="305" as="targetPoint" />
            <Array as="points">
              <mxPoint x="180" y="385" />
              <mxPoint x="180" y="305" />
            </Array>
          </mxGeometry>
        </mxCell>
        <mxCell id="istF8mxj8MWislgcNOOp-49" value="" style="rounded=0;whiteSpace=wrap;html=1;" vertex="1" parent="1">
          <mxGeometry x="880" y="286.5" width="20" height="17" as="geometry" />
        </mxCell>
        <mxCell id="istF8mxj8MWislgcNOOp-54" value="" style="rounded=0;orthogonalLoop=1;jettySize=auto;html=1;endArrow=halfCircle;endFill=0;endSize=6;strokeWidth=1;sketch=0;exitX=1;exitY=0.5;exitDx=0;exitDy=0;" edge="1" target="istF8mxj8MWislgcNOOp-56" parent="1" source="istF8mxj8MWislgcNOOp-18">
          <mxGeometry relative="1" as="geometry">
            <mxPoint x="860" y="295" as="sourcePoint" />
          </mxGeometry>
        </mxCell>
        <mxCell id="istF8mxj8MWislgcNOOp-55" value="" style="rounded=0;orthogonalLoop=1;jettySize=auto;html=1;endArrow=oval;endFill=0;sketch=0;sourcePerimeterSpacing=0;targetPerimeterSpacing=0;endSize=10;exitX=0;exitY=0.5;exitDx=0;exitDy=0;" edge="1" target="istF8mxj8MWislgcNOOp-56" parent="1" source="istF8mxj8MWislgcNOOp-49">
          <mxGeometry relative="1" as="geometry">
            <mxPoint x="820" y="295" as="sourcePoint" />
          </mxGeometry>
        </mxCell>
        <mxCell id="istF8mxj8MWislgcNOOp-56" value="" style="ellipse;whiteSpace=wrap;html=1;align=center;aspect=fixed;fillColor=none;strokeColor=none;resizable=0;perimeter=centerPerimeter;rotatable=0;allowArrows=0;points=[];outlineConnect=1;" vertex="1" parent="1">
          <mxGeometry x="835" y="290" width="10" height="10" as="geometry" />
        </mxCell>
        <mxCell id="istF8mxj8MWislgcNOOp-57" value="" style="rounded=0;orthogonalLoop=1;jettySize=auto;html=1;endArrow=halfCircle;endFill=0;endSize=6;strokeWidth=1;sketch=0;exitX=1;exitY=0.5;exitDx=0;exitDy=0;" edge="1" target="istF8mxj8MWislgcNOOp-59" parent="1" source="istF8mxj8MWislgcNOOp-62">
          <mxGeometry relative="1" as="geometry">
            <mxPoint x="20" y="305" as="sourcePoint" />
          </mxGeometry>
        </mxCell>
        <mxCell id="istF8mxj8MWislgcNOOp-58" value="" style="rounded=0;orthogonalLoop=1;jettySize=auto;html=1;endArrow=oval;endFill=0;sketch=0;sourcePerimeterSpacing=0;targetPerimeterSpacing=0;endSize=10;exitX=0;exitY=0.5;exitDx=0;exitDy=0;" edge="1" target="istF8mxj8MWislgcNOOp-59" parent="1" source="istF8mxj8MWislgcNOOp-44">
          <mxGeometry relative="1" as="geometry">
            <mxPoint x="-110" y="295" as="sourcePoint" />
          </mxGeometry>
        </mxCell>
        <mxCell id="istF8mxj8MWislgcNOOp-59" value="" style="ellipse;whiteSpace=wrap;html=1;align=center;aspect=fixed;fillColor=none;strokeColor=none;resizable=0;perimeter=centerPerimeter;rotatable=0;allowArrows=0;points=[];outlineConnect=1;" vertex="1" parent="1">
          <mxGeometry x="60" y="300" width="10" height="10" as="geometry" />
        </mxCell>
        <mxCell id="istF8mxj8MWislgcNOOp-60" value="«Component»&lt;br&gt;&lt;b&gt;Appointments&lt;/b&gt;" style="html=1;dropTarget=0;whiteSpace=wrap;" vertex="1" parent="1">
          <mxGeometry x="-160" y="260" width="180" height="90" as="geometry" />
        </mxCell>
        <mxCell id="istF8mxj8MWislgcNOOp-61" value="" style="shape=module;jettyWidth=8;jettyHeight=4;" vertex="1" parent="istF8mxj8MWislgcNOOp-60">
          <mxGeometry x="1" width="20" height="20" relative="1" as="geometry">
            <mxPoint x="-27" y="7" as="offset" />
          </mxGeometry>
        </mxCell>
        <mxCell id="istF8mxj8MWislgcNOOp-63" value="" style="rounded=0;orthogonalLoop=1;jettySize=auto;html=1;endArrow=halfCircle;endFill=0;endSize=6;strokeWidth=1;sketch=0;exitX=1;exitY=0.5;exitDx=0;exitDy=0;" edge="1" parent="1" source="istF8mxj8MWislgcNOOp-60" target="istF8mxj8MWislgcNOOp-62">
          <mxGeometry relative="1" as="geometry">
            <mxPoint x="20" y="305" as="sourcePoint" />
            <mxPoint x="65" y="305" as="targetPoint" />
          </mxGeometry>
        </mxCell>
        <mxCell id="istF8mxj8MWislgcNOOp-62" value="" style="rounded=0;whiteSpace=wrap;html=1;" vertex="1" parent="1">
          <mxGeometry x="10" y="296.5" width="20" height="17" as="geometry" />
        </mxCell>
        <mxCell id="istF8mxj8MWislgcNOOp-64" value="&lt;p style=&quot;font-weight: 400; white-space: normal; margin: 6px 0px 0px;&quot;&gt;&lt;b&gt;&amp;lt;&amp;lt;subsystem&amp;gt;&amp;gt;&amp;nbsp;&lt;/b&gt;&lt;/p&gt;&lt;p style=&quot;white-space: normal; margin: 6px 0px 0px;&quot;&gt;Appointments App&lt;/p&gt;" style="text;align=center;fontStyle=1;verticalAlign=middle;spacingLeft=3;spacingRight=3;strokeColor=none;rotatable=0;points=[[0,0.5],[1,0.5]];portConstraint=eastwest;html=1;" vertex="1" parent="1">
          <mxGeometry x="60" y="-80" width="190" height="40" as="geometry" />
        </mxCell>
        <mxCell id="istF8mxj8MWislgcNOOp-65" value="«Component»&lt;br&gt;&lt;b&gt;Availability&lt;/b&gt;" style="html=1;dropTarget=0;whiteSpace=wrap;" vertex="1" parent="1">
          <mxGeometry x="-160" y="50" width="180" height="90" as="geometry" />
        </mxCell>
        <mxCell id="istF8mxj8MWislgcNOOp-66" value="" style="shape=module;jettyWidth=8;jettyHeight=4;" vertex="1" parent="istF8mxj8MWislgcNOOp-65">
          <mxGeometry x="1" width="20" height="20" relative="1" as="geometry">
            <mxPoint x="-27" y="7" as="offset" />
          </mxGeometry>
        </mxCell>
        <mxCell id="istF8mxj8MWislgcNOOp-68" value="" style="rounded=0;orthogonalLoop=1;jettySize=auto;html=1;endArrow=halfCircle;endFill=0;endSize=6;strokeWidth=1;sketch=0;exitX=0.5;exitY=0;exitDx=0;exitDy=0;" edge="1" target="istF8mxj8MWislgcNOOp-70" parent="1" source="istF8mxj8MWislgcNOOp-60">
          <mxGeometry relative="1" as="geometry">
            <mxPoint x="30" y="215" as="sourcePoint" />
          </mxGeometry>
        </mxCell>
        <mxCell id="istF8mxj8MWislgcNOOp-69" value="" style="rounded=0;orthogonalLoop=1;jettySize=auto;html=1;endArrow=oval;endFill=0;sketch=0;sourcePerimeterSpacing=0;targetPerimeterSpacing=0;endSize=10;exitX=0.5;exitY=1;exitDx=0;exitDy=0;" edge="1" target="istF8mxj8MWislgcNOOp-70" parent="1" source="istF8mxj8MWislgcNOOp-65">
          <mxGeometry relative="1" as="geometry">
            <mxPoint x="-10" y="215" as="sourcePoint" />
          </mxGeometry>
        </mxCell>
        <mxCell id="istF8mxj8MWislgcNOOp-70" value="" style="ellipse;whiteSpace=wrap;html=1;align=center;aspect=fixed;fillColor=none;strokeColor=none;resizable=0;perimeter=centerPerimeter;rotatable=0;allowArrows=0;points=[];outlineConnect=1;" vertex="1" parent="1">
          <mxGeometry x="-75" y="200" width="10" height="10" as="geometry" />
        </mxCell>
        <mxCell id="istF8mxj8MWislgcNOOp-71" value="" style="endArrow=none;html=1;rounded=0;entryX=0;entryY=0.5;entryDx=0;entryDy=0;exitX=1;exitY=0.5;exitDx=0;exitDy=0;" edge="1" parent="1" source="istF8mxj8MWislgcNOOp-44" target="istF8mxj8MWislgcNOOp-12">
          <mxGeometry width="50" height="50" relative="1" as="geometry">
            <mxPoint x="40" y="260" as="sourcePoint" />
            <mxPoint x="90" y="210" as="targetPoint" />
            <Array as="points">
              <mxPoint x="180" y="305" />
              <mxPoint x="180" y="225" />
            </Array>
          </mxGeometry>
        </mxCell>
        <mxCell id="istF8mxj8MWislgcNOOp-72" value="" style="endArrow=none;html=1;rounded=0;exitX=-0.001;exitY=0.36;exitDx=0;exitDy=0;exitPerimeter=0;" edge="1" parent="1" source="istF8mxj8MWislgcNOOp-73">
          <mxGeometry width="50" height="50" relative="1" as="geometry">
            <mxPoint x="110" y="280" as="sourcePoint" />
            <mxPoint x="180" y="256" as="targetPoint" />
          </mxGeometry>
        </mxCell>
        <mxCell id="istF8mxj8MWislgcNOOp-74" value="" style="endArrow=none;html=1;rounded=0;exitX=-0.001;exitY=0.36;exitDx=0;exitDy=0;exitPerimeter=0;" edge="1" parent="1" source="istF8mxj8MWislgcNOOp-2" target="istF8mxj8MWislgcNOOp-73">
          <mxGeometry width="50" height="50" relative="1" as="geometry">
            <mxPoint x="119" y="259" as="sourcePoint" />
            <mxPoint x="180" y="260" as="targetPoint" />
          </mxGeometry>
        </mxCell>
        <mxCell id="istF8mxj8MWislgcNOOp-73" value="" style="rounded=0;whiteSpace=wrap;html=1;" vertex="1" parent="1">
          <mxGeometry x="110" y="250" width="20" height="17" as="geometry" />
        </mxCell>
        <mxCell id="istF8mxj8MWislgcNOOp-75" value="" style="rounded=0;orthogonalLoop=1;jettySize=auto;html=1;endArrow=halfCircle;endFill=0;endSize=6;strokeWidth=1;sketch=0;exitX=1;exitY=0.5;exitDx=0;exitDy=0;" edge="1" target="istF8mxj8MWislgcNOOp-77" parent="1" source="istF8mxj8MWislgcNOOp-65">
          <mxGeometry relative="1" as="geometry">
            <mxPoint x="170" y="295" as="sourcePoint" />
          </mxGeometry>
        </mxCell>
        <mxCell id="istF8mxj8MWislgcNOOp-76" value="" style="rounded=0;orthogonalLoop=1;jettySize=auto;html=1;endArrow=oval;endFill=0;sketch=0;sourcePerimeterSpacing=0;targetPerimeterSpacing=0;endSize=10;exitX=0;exitY=0.5;exitDx=0;exitDy=0;" edge="1" target="istF8mxj8MWislgcNOOp-77" parent="1" source="istF8mxj8MWislgcNOOp-73">
          <mxGeometry relative="1" as="geometry">
            <mxPoint x="130" y="295" as="sourcePoint" />
            <Array as="points">
              <mxPoint x="75" y="260" />
            </Array>
          </mxGeometry>
        </mxCell>
        <mxCell id="istF8mxj8MWislgcNOOp-77" value="" style="ellipse;whiteSpace=wrap;html=1;align=center;aspect=fixed;fillColor=none;strokeColor=none;resizable=0;perimeter=centerPerimeter;rotatable=0;allowArrows=0;points=[];outlineConnect=1;" vertex="1" parent="1">
          <mxGeometry x="70" y="90" width="10" height="10" as="geometry" />
        </mxCell>
        <mxCell id="istF8mxj8MWislgcNOOp-78" value="«Component»&lt;br&gt;&lt;b&gt;Ratings&lt;/b&gt;" style="html=1;dropTarget=0;whiteSpace=wrap;" vertex="1" parent="1">
          <mxGeometry x="-160" y="400" width="180" height="90" as="geometry" />
        </mxCell>
        <mxCell id="istF8mxj8MWislgcNOOp-79" value="" style="shape=module;jettyWidth=8;jettyHeight=4;" vertex="1" parent="istF8mxj8MWislgcNOOp-78">
          <mxGeometry x="1" width="20" height="20" relative="1" as="geometry">
            <mxPoint x="-27" y="7" as="offset" />
          </mxGeometry>
        </mxCell>
        <mxCell id="istF8mxj8MWislgcNOOp-80" value="" style="rounded=0;orthogonalLoop=1;jettySize=auto;html=1;endArrow=halfCircle;endFill=0;endSize=6;strokeWidth=1;sketch=0;exitX=0.5;exitY=0;exitDx=0;exitDy=0;" edge="1" target="istF8mxj8MWislgcNOOp-82" parent="1" source="istF8mxj8MWislgcNOOp-78">
          <mxGeometry relative="1" as="geometry">
            <mxPoint x="60" y="265" as="sourcePoint" />
          </mxGeometry>
        </mxCell>
        <mxCell id="istF8mxj8MWislgcNOOp-81" value="" style="rounded=0;orthogonalLoop=1;jettySize=auto;html=1;endArrow=oval;endFill=0;sketch=0;sourcePerimeterSpacing=0;targetPerimeterSpacing=0;endSize=10;exitX=0.5;exitY=1;exitDx=0;exitDy=0;" edge="1" target="istF8mxj8MWislgcNOOp-82" parent="1" source="istF8mxj8MWislgcNOOp-60">
          <mxGeometry relative="1" as="geometry">
            <mxPoint x="20" y="265" as="sourcePoint" />
          </mxGeometry>
        </mxCell>
        <mxCell id="istF8mxj8MWislgcNOOp-82" value="" style="ellipse;whiteSpace=wrap;html=1;align=center;aspect=fixed;fillColor=none;strokeColor=none;resizable=0;perimeter=centerPerimeter;rotatable=0;allowArrows=0;points=[];outlineConnect=1;" vertex="1" parent="1">
          <mxGeometry x="-75" y="370" width="10" height="10" as="geometry" />
        </mxCell>
        <mxCell id="istF8mxj8MWislgcNOOp-83" value="«UI»&lt;br&gt;&lt;b&gt;App frontend&lt;/b&gt;" style="html=1;dropTarget=0;whiteSpace=wrap;" vertex="1" parent="1">
          <mxGeometry x="-440" y="200" width="180" height="90" as="geometry" />
        </mxCell>
        <mxCell id="istF8mxj8MWislgcNOOp-84" value="" style="shape=module;jettyWidth=8;jettyHeight=4;" vertex="1" parent="istF8mxj8MWislgcNOOp-83">
          <mxGeometry x="1" width="20" height="20" relative="1" as="geometry">
            <mxPoint x="-27" y="7" as="offset" />
          </mxGeometry>
        </mxCell>
        <mxCell id="istF8mxj8MWislgcNOOp-85" value="" style="rounded=0;orthogonalLoop=1;jettySize=auto;html=1;endArrow=halfCircle;endFill=0;endSize=6;strokeWidth=1;sketch=0;exitX=0.5;exitY=0;exitDx=0;exitDy=0;" edge="1" target="istF8mxj8MWislgcNOOp-87" parent="1" source="istF8mxj8MWislgcNOOp-83">
          <mxGeometry relative="1" as="geometry">
            <mxPoint x="-80" y="265" as="sourcePoint" />
          </mxGeometry>
        </mxCell>
        <mxCell id="istF8mxj8MWislgcNOOp-86" value="" style="rounded=0;orthogonalLoop=1;jettySize=auto;html=1;endArrow=oval;endFill=0;sketch=0;sourcePerimeterSpacing=0;targetPerimeterSpacing=0;endSize=10;exitX=0;exitY=0.5;exitDx=0;exitDy=0;" edge="1" target="istF8mxj8MWislgcNOOp-87" parent="1" source="istF8mxj8MWislgcNOOp-65">
          <mxGeometry relative="1" as="geometry">
            <mxPoint x="-120" y="265" as="sourcePoint" />
          </mxGeometry>
        </mxCell>
        <mxCell id="istF8mxj8MWislgcNOOp-87" value="" style="ellipse;whiteSpace=wrap;html=1;align=center;aspect=fixed;fillColor=none;strokeColor=none;resizable=0;perimeter=centerPerimeter;rotatable=0;allowArrows=0;points=[];outlineConnect=1;" vertex="1" parent="1">
          <mxGeometry x="-355" y="90" width="10" height="10" as="geometry" />
        </mxCell>
        <mxCell id="istF8mxj8MWislgcNOOp-88" value="" style="rounded=0;orthogonalLoop=1;jettySize=auto;html=1;endArrow=halfCircle;endFill=0;endSize=6;strokeWidth=1;sketch=0;exitX=1;exitY=0.5;exitDx=0;exitDy=0;" edge="1" target="istF8mxj8MWislgcNOOp-90" parent="1" source="istF8mxj8MWislgcNOOp-83">
          <mxGeometry relative="1" as="geometry">
            <mxPoint x="-60" y="305" as="sourcePoint" />
          </mxGeometry>
        </mxCell>
        <mxCell id="istF8mxj8MWislgcNOOp-89" value="" style="rounded=0;orthogonalLoop=1;jettySize=auto;html=1;endArrow=oval;endFill=0;sketch=0;sourcePerimeterSpacing=0;targetPerimeterSpacing=0;endSize=10;exitX=0;exitY=0.5;exitDx=0;exitDy=0;" edge="1" target="istF8mxj8MWislgcNOOp-90" parent="1" source="istF8mxj8MWislgcNOOp-60">
          <mxGeometry relative="1" as="geometry">
            <mxPoint x="-100" y="305" as="sourcePoint" />
            <Array as="points">
              <mxPoint x="-205" y="305" />
            </Array>
          </mxGeometry>
        </mxCell>
        <mxCell id="istF8mxj8MWislgcNOOp-90" value="" style="ellipse;whiteSpace=wrap;html=1;align=center;aspect=fixed;fillColor=none;strokeColor=none;resizable=0;perimeter=centerPerimeter;rotatable=0;allowArrows=0;points=[];outlineConnect=1;" vertex="1" parent="1">
          <mxGeometry x="-210" y="240" width="10" height="10" as="geometry" />
        </mxCell>
        <mxCell id="istF8mxj8MWislgcNOOp-91" value="" style="rounded=0;orthogonalLoop=1;jettySize=auto;html=1;endArrow=halfCircle;endFill=0;endSize=6;strokeWidth=1;sketch=0;exitX=0.5;exitY=1;exitDx=0;exitDy=0;" edge="1" target="istF8mxj8MWislgcNOOp-93" parent="1" source="istF8mxj8MWislgcNOOp-83">
          <mxGeometry relative="1" as="geometry">
            <mxPoint x="-60" y="305" as="sourcePoint" />
          </mxGeometry>
        </mxCell>
        <mxCell id="istF8mxj8MWislgcNOOp-92" value="" style="rounded=0;orthogonalLoop=1;jettySize=auto;html=1;endArrow=oval;endFill=0;sketch=0;sourcePerimeterSpacing=0;targetPerimeterSpacing=0;endSize=10;exitX=0;exitY=0.5;exitDx=0;exitDy=0;" edge="1" target="istF8mxj8MWislgcNOOp-93" parent="1" source="istF8mxj8MWislgcNOOp-78">
          <mxGeometry relative="1" as="geometry">
            <mxPoint x="-100" y="305" as="sourcePoint" />
          </mxGeometry>
        </mxCell>
        <mxCell id="istF8mxj8MWislgcNOOp-93" value="" style="ellipse;whiteSpace=wrap;html=1;align=center;aspect=fixed;fillColor=none;strokeColor=none;resizable=0;perimeter=centerPerimeter;rotatable=0;allowArrows=0;points=[];outlineConnect=1;" vertex="1" parent="1">
          <mxGeometry x="-355" y="440" width="10" height="10" as="geometry" />
        </mxCell>
        <mxCell id="istF8mxj8MWislgcNOOp-94" value="" style="rounded=0;orthogonalLoop=1;jettySize=auto;html=1;endArrow=halfCircle;endFill=0;endSize=6;strokeWidth=1;sketch=0;" edge="1" target="istF8mxj8MWislgcNOOp-96" parent="1">
          <mxGeometry relative="1" as="geometry">
            <mxPoint x="-600" y="245" as="sourcePoint" />
          </mxGeometry>
        </mxCell>
        <mxCell id="istF8mxj8MWislgcNOOp-95" value="" style="rounded=0;orthogonalLoop=1;jettySize=auto;html=1;endArrow=oval;endFill=0;sketch=0;sourcePerimeterSpacing=0;targetPerimeterSpacing=0;endSize=10;exitX=0;exitY=0.5;exitDx=0;exitDy=0;" edge="1" target="istF8mxj8MWislgcNOOp-96" parent="1" source="istF8mxj8MWislgcNOOp-83">
          <mxGeometry relative="1" as="geometry">
            <mxPoint x="-360" y="245" as="sourcePoint" />
          </mxGeometry>
        </mxCell>
        <mxCell id="istF8mxj8MWislgcNOOp-96" value="" style="ellipse;whiteSpace=wrap;html=1;align=center;aspect=fixed;fillColor=none;strokeColor=none;resizable=0;perimeter=centerPerimeter;rotatable=0;allowArrows=0;points=[];outlineConnect=1;" vertex="1" parent="1">
          <mxGeometry x="-490" y="240" width="10" height="10" as="geometry" />
        </mxCell>
        <mxCell id="istF8mxj8MWislgcNOOp-97" value="" style="ellipse;whiteSpace=wrap;html=1;aspect=fixed;" vertex="1" parent="1">
          <mxGeometry x="-620" y="235" width="20" height="20" as="geometry" />
        </mxCell>
        <mxCell id="istF8mxj8MWislgcNOOp-99" value="Data" style="text;html=1;align=center;verticalAlign=middle;whiteSpace=wrap;rounded=0;" vertex="1" parent="1">
          <mxGeometry x="-640" y="260" width="60" height="30" as="geometry" />
        </mxCell>
      </root>
    </mxGraphModel>
  </diagram>
</mxfile>
